<svg xmlns="http://www.w3.org/2000/svg" width="336" height="354.4" viewBox="0 0 504 531.6" preserveAspectRatio="xMinYMin meet">
<metadata>
<structo:source xmlns:structo="https://nigjo.github.io/structogramview/">
<![CDATA[van := false
maxind := 0
maxért := 0

FOR: i = 1..n
  IF: hibák[i].súly > maxért
    van := true
    maxind := i
    maxért := hibák[i].súly
  ENDIF:
ENDFOR:

IF: van
  lsh := hibák[maxind].név
ENDIF:]]>
</structo:source>
</metadata>
<style>
svg{stroke:none;stroke-width:1px;fill:white;}
line{stroke:black;}
text{font-family:sans-serif;fill:black;}
.comment&gt;text{font-style:italic;fill:gray;}
.whiteShadow{fill:none !important;stroke:white;stroke-width:2px;}
.casevalue,.blocktitle{fill:gray;font-size:75%;font-style:italic;}
.caption{font-weight:bold;font-size:1.25em;}
svg{font-size:24px}</style>
<style class="darkreader darkreader--sync" media="screen"/>
<g class="diagram" transform="translate(0,0)">
<rect width="504" height="531.6"/>
<g class="sequence" transform="translate(12,12)">
<line x1="480" y1="0" x2="480" y2="49.2"/>
<line x1="0" y1="0" x2="0" y2="49.2"/>
<line x1="0" y1="0" x2="480" y2="0"/>
<text x="6" y="33" textLength="123">van := false</text>
</g>
<g class="sequence" transform="translate(12,61.2)">
<line x1="480" y1="0" x2="480" y2="49.2"/>
<line x1="0" y1="0" x2="0" y2="49.2"/>
<line x1="0" y1="0" x2="480" y2="0"/>
<text x="6" y="33" textLength="124.5">maxind := 0</text>
</g>
<g class="sequence" transform="translate(12,110.4)">
<line x1="480" y1="0" x2="480" y2="49.2"/>
<line x1="0" y1="0" x2="0" y2="49.2"/>
<line x1="0" y1="0" x2="480" y2="0"/>
<text x="6" y="33" textLength="120">maxért := 0</text>
</g>
<g class="for" transform="translate(12,159.6)">
<line x1="480" y1="0" x2="480" y2="253.2"/>
<line x1="0" y1="0" x2="0" y2="253.2"/>
<line x1="0" y1="0" x2="480" y2="0"/>
<text x="12" y="33" textLength="72">i = 1..n</text>
<g class="block" transform="translate(37.2,49.2)">
<g class="if" transform="translate(0,0)">
<line x1="0" y1="0" x2="0" y2="204"/>
<line x1="0" y1="0" x2="441.6" y2="0"/>
<line x1="0" y1="0" x2="340.5" y2="55.2"/>
<line x1="340.5" y1="55.2" x2="441.6" y2="0"/>
<text x="107.25" y="27" textLength="226.5" class="whiteShadow">hibák[i].súly &gt; maxért</text>
<text x="107.25" y="27" textLength="226.5">hibák[i].súly &gt; maxért</text>
<g class="then" transform="translate(1.2,55.2)">
<text x="4.5" y="-6" textLength="31.5" class="blocktitle">true</text>
<g class="sequence" transform="translate(0,0)">
<line x1="-1.5" y1="0" x2="340.5" y2="0"/>
<text x="6" y="33" textLength="114">van := true</text>
</g>
<g class="sequence" transform="translate(0,49.2)">
<line x1="-1.5" y1="0" x2="340.5" y2="0"/>
<text x="6" y="33" textLength="117">maxind := i</text>
</g>
<g class="sequence" transform="translate(0,98.4)">
<line x1="-1.5" y1="0" x2="340.5" y2="0"/>
<line x1="0" y1="50.4" x2="339" y2="50.4"/>
<text x="6" y="33" textLength="232.5">maxért := hibák[i].súly</text>
</g>
</g>
<g class="else" transform="translate(340.2,55.2)">
<line x1="0" y1="0" x2="0" y2="148.8"/>
<text x="57.66" y="-6" textLength="37.5" class="blocktitle">false</text>
<g class="sequence" transform="translate(1.2,0)">
<line x1="-1.5" y1="0" x2="101.68" y2="0"/>
<line x1="0" y1="50.4" x2="100.18" y2="50.4"/>
</g>
</g>
</g>
</g>
</g>
<g class="if" transform="translate(12,412.8)">
<line x1="480" y1="0" x2="480" y2="106.8"/>
<line x1="0" y1="0" x2="0" y2="106.8"/>
<line x1="0" y1="0" x2="480" y2="0"/>
<line x1="0" y1="106.8" x2="480" y2="106.8"/>
<line x1="0" y1="0" x2="377.27" y2="55.2"/>
<line x1="377.27" y1="55.2" x2="480" y2="0"/>
<text x="219" y="27" textLength="39" class="whiteShadow">van</text>
<text x="219" y="27" textLength="39">van</text>
<g class="then" transform="translate(1.2,55.2)">
<text x="4.5" y="-6" textLength="31.5" class="blocktitle">true</text>
<g class="sequence" transform="translate(0,0)">
<line x1="-1.5" y1="0" x2="377.27" y2="0"/>
<line x1="0" y1="50.4" x2="375.77" y2="50.4"/>
<text x="6" y="33" textLength="258">lsh := hibák[maxind].név</text>
</g>
</g>
<g class="else" transform="translate(376.97,55.2)">
<line x1="0" y1="0" x2="0" y2="50.4"/>
<text x="58.09" y="-6" textLength="37.5" class="blocktitle">false</text>
<g class="sequence" transform="translate(1.2,0)">
<line x1="-1.5" y1="0" x2="102.11" y2="0"/>
<line x1="0" y1="50.4" x2="100.61" y2="50.4"/>
</g>
</g>
</g>
</g>
</svg>