<svg xmlns="http://www.w3.org/2000/svg" width="336" height="228" viewBox="0 0 504 342" preserveAspectRatio="xMinYMin meet">
<metadata>
<structo:source xmlns:structo="https://nigjo.github.io/structogramview/">
<![CDATA[van := false
FOR: i = 1..n
  IF: hőm[i] < 0
    IF: van
      IF: hőm[i] > hőm[nap]
        nap := i
      ENDIF:
    ELSE:
      van := true
      nap := i
    ENDIF:
  ENDIF:
ENDFOR:]]>
</structo:source>
</metadata>
<style>
svg{stroke:none;stroke-width:1px;fill:white;}
line{stroke:black;}
text{font-family:sans-serif;fill:black;}
.comment&gt;text{font-style:italic;fill:gray;}
.whiteShadow{fill:none !important;stroke:white;stroke-width:2px;}
.casevalue,.blocktitle{fill:gray;font-size:75%;font-style:italic;}
.caption{font-weight:bold;font-size:1.25em;}
svg{font-size:24px}</style>
<style class="darkreader darkreader--sync" media="screen"/>
<g class="diagram" transform="translate(0,0)">
<rect width="504" height="342"/>
<g class="sequence" transform="translate(12,12)">
<line x1="480" y1="0" x2="480" y2="49.2"/>
<line x1="0" y1="0" x2="0" y2="49.2"/>
<line x1="0" y1="0" x2="480" y2="0"/>
<text x="6" y="33" textLength="123">van := false</text>
</g>
<g class="for" transform="translate(12,61.2)">
<line x1="480" y1="0" x2="480" y2="268.8"/>
<line x1="0" y1="0" x2="0" y2="268.8"/>
<line x1="0" y1="0" x2="480" y2="0"/>
<line x1="0" y1="268.8" x2="480" y2="268.8"/>
<text x="12" y="33" textLength="72">i = 1..n</text>
<g class="block" transform="translate(37.2,49.2)">
<g class="if" transform="translate(0,0)">
<line x1="0" y1="0" x2="0" y2="218.4"/>
<line x1="0" y1="0" x2="441.6" y2="0"/>
<line x1="0" y1="0" x2="353.59" y2="55.2"/>
<line x1="353.59" y1="55.2" x2="441.6" y2="0"/>
<text x="167.25" y="27" textLength="106.5" class="whiteShadow">hőm[i] &lt; 0</text>
<text x="167.25" y="27" textLength="106.5">hőm[i] &lt; 0</text>
<g class="then" transform="translate(1.2,55.2)">
<text x="4.5" y="-6" textLength="31.5" class="blocktitle">true</text>
<g class="if" transform="translate(0,0)">
<line x1="-1.5" y1="0" x2="353.59" y2="0"/>
<line x1="0" y1="163.2" x2="352.09" y2="163.2"/>
<line x1="0" y1="0" x2="200.04" y2="55.2"/>
<line x1="200.04" y1="55.2" x2="352.09" y2="0"/>
<text x="156.75" y="27" textLength="39" class="whiteShadow">van</text>
<text x="156.75" y="27" textLength="39">van</text>
<g class="then" transform="translate(0,55.2)">
<text x="4.5" y="-6" textLength="31.5" class="blocktitle">true</text>
<g class="if" transform="translate(0,0)">
<line x1="-1.5" y1="0" x2="200.04" y2="0"/>
<line x1="0" y1="106.8" x2="198.54" y2="106.8"/>
<line x1="0" y1="0" x2="111.75" y2="55.2"/>
<line x1="111.75" y1="55.2" x2="198.54" y2="0"/>
<text x="2.25" y="27" textLength="193.5" class="whiteShadow">hőm[i] &gt; hőm[nap]</text>
<text x="2.25" y="27" textLength="193.5">hőm[i] &gt; hőm[nap]</text>
<g class="then" transform="translate(0,55.2)">
<text x="4.5" y="-6" textLength="31.5" class="blocktitle">true</text>
<g class="sequence" transform="translate(0,0)">
<line x1="-1.5" y1="0" x2="111.75" y2="0"/>
<line x1="0" y1="50.4" x2="110.25" y2="50.4"/>
<text x="6" y="33" textLength="79.5">nap := i</text>
</g>
</g>
<g class="else" transform="translate(110.25,55.2)">
<line x1="0" y1="0" x2="0" y2="50.4"/>
<text x="44.55" y="-6" textLength="37.5" class="blocktitle">false</text>
<g class="sequence" transform="translate(1.2,0)">
<line x1="-1.5" y1="0" x2="88.57" y2="0"/>
<line x1="0" y1="50.4" x2="87.07" y2="50.4"/>
</g>
</g>
</g>
</g>
<g class="else" transform="translate(198.54,55.2)">
<line x1="0" y1="0" x2="0" y2="106.8"/>
<text x="109.8" y="-6" textLength="37.5" class="blocktitle">false</text>
<g class="sequence" transform="translate(1.2,0)">
<line x1="-1.5" y1="0" x2="153.83" y2="0"/>
<text x="6" y="33" textLength="114">van := true</text>
</g>
<g class="sequence" transform="translate(1.2,49.2)">
<line x1="-1.5" y1="0" x2="153.83" y2="0"/>
<line x1="0" y1="50.4" x2="152.33" y2="50.4"/>
<text x="6" y="33" textLength="79.5">nap := i</text>
</g>
</g>
</g>
</g>
<g class="else" transform="translate(353.29,55.2)">
<line x1="0" y1="0" x2="0" y2="163.2"/>
<text x="44.57" y="-6" textLength="37.5" class="blocktitle">false</text>
<g class="sequence" transform="translate(1.2,0)">
<line x1="-1.5" y1="0" x2="88.59" y2="0"/>
<line x1="0" y1="50.4" x2="87.09" y2="50.4"/>
</g>
</g>
</g>
</g>
</g>
</g>
</svg>