<svg xmlns="http://www.w3.org/2000/svg" width="336" height="218.4" viewBox="0 0 504 327.6" preserveAspectRatio="xMinYMin meet">
<metadata>
<structo:source xmlns:structo="https://nigjo.github.io/structogramview/">
<![CDATA[maxindex := 0
maxérték := 0

FOR: i = 1..n
  IF: hő[i] > maxérték
    maxindex := i
    maxérték := hő[i]
  ENDIF:
ENDFOR:]]>
</structo:source>
</metadata>
<style>
svg{stroke:none;stroke-width:1px;fill:white;}
line{stroke:black;}
text{font-family:sans-serif;fill:black;}
.comment&gt;text{font-style:italic;fill:gray;}
.whiteShadow{fill:none !important;stroke:white;stroke-width:2px;}
.casevalue,.blocktitle{fill:gray;font-size:75%;font-style:italic;}
.caption{font-weight:bold;font-size:1.25em;}
svg{font-size:24px}</style>
<style class="darkreader darkreader--sync" media="screen"/>
<g class="diagram" transform="translate(0,0)">
<rect width="504" height="327.6"/>
<g class="sequence" transform="translate(12,12)">
<line x1="480" y1="0" x2="480" y2="49.2"/>
<line x1="0" y1="0" x2="0" y2="49.2"/>
<line x1="0" y1="0" x2="480" y2="0"/>
<text x="6" y="33" textLength="150">maxindex := 0</text>
</g>
<g class="sequence" transform="translate(12,61.2)">
<line x1="480" y1="0" x2="480" y2="49.2"/>
<line x1="0" y1="0" x2="0" y2="49.2"/>
<line x1="0" y1="0" x2="480" y2="0"/>
<text x="6" y="33" textLength="145.5">maxérték := 0</text>
</g>
<g class="for" transform="translate(12,110.4)">
<line x1="480" y1="0" x2="480" y2="205.2"/>
<line x1="0" y1="0" x2="0" y2="205.2"/>
<line x1="0" y1="0" x2="480" y2="0"/>
<line x1="0" y1="205.2" x2="480" y2="205.2"/>
<text x="12" y="33" textLength="72">i = 1..n</text>
<g class="block" transform="translate(37.2,49.2)">
<g class="if" transform="translate(0,0)">
<line x1="0" y1="0" x2="0" y2="154.8"/>
<line x1="0" y1="0" x2="441.6" y2="0"/>
<line x1="0" y1="0" x2="319.44" y2="55.2"/>
<line x1="319.44" y1="55.2" x2="441.6" y2="0"/>
<text x="135" y="27" textLength="171" class="whiteShadow">hő[i] &gt; maxérték</text>
<text x="135" y="27" textLength="171">hő[i] &gt; maxérték</text>
<g class="then" transform="translate(1.2,55.2)">
<text x="4.5" y="-6" textLength="31.5" class="blocktitle">true</text>
<g class="sequence" transform="translate(0,0)">
<line x1="-1.5" y1="0" x2="319.44" y2="0"/>
<text x="6" y="33" textLength="142.5">maxindex := i</text>
</g>
<g class="sequence" transform="translate(0,49.2)">
<line x1="-1.5" y1="0" x2="319.44" y2="0"/>
<line x1="0" y1="50.4" x2="317.94" y2="50.4"/>
<text x="6" y="33" textLength="178.5">maxérték := hő[i]</text>
</g>
</g>
<g class="else" transform="translate(319.14,55.2)">
<line x1="0" y1="0" x2="0" y2="99.6"/>
<text x="78.71" y="-6" textLength="37.5" class="blocktitle">false</text>
<g class="sequence" transform="translate(1.2,0)">
<line x1="-1.5" y1="0" x2="122.74" y2="0"/>
<line x1="0" y1="50.4" x2="121.24" y2="50.4"/>
</g>
</g>
</g>
</g>
</g>
</g>
</svg>