<svg xmlns="http://www.w3.org/2000/svg" width="336" height="218.4" viewBox="0 0 504 327.6" preserveAspectRatio="xMinYMin meet">
<metadata>
<structo:source xmlns:structo="https://nigjo.github.io/structogramview/">
<![CDATA[hol := a
maxérték := sin(a)
FOR: hol = a..b
  IF: sin(hol) > maxérték
    maxérték := sin(hol)
  ENDIF:
  hol := hol + 1
ENDFOR:]]>
</structo:source>
</metadata>
<style>
svg{stroke:none;stroke-width:1px;fill:white;}
line{stroke:black;}
text{font-family:sans-serif;fill:black;}
.comment&gt;text{font-style:italic;fill:gray;}
.whiteShadow{fill:none !important;stroke:white;stroke-width:2px;}
.casevalue,.blocktitle{fill:gray;font-size:75%;font-style:italic;}
.caption{font-weight:bold;font-size:1.25em;}
svg{font-size:24px}</style>
<style class="darkreader darkreader--sync" media="screen"/>
<g class="diagram" transform="translate(0,0)">
<rect width="504" height="327.6"/>
<g class="sequence" transform="translate(12,12)">
<line x1="480" y1="0" x2="480" y2="49.2"/>
<line x1="0" y1="0" x2="0" y2="49.2"/>
<line x1="0" y1="0" x2="480" y2="0"/>
<text x="6" y="33" textLength="79.5">hol := a</text>
</g>
<g class="sequence" transform="translate(12,61.2)">
<line x1="480" y1="0" x2="480" y2="49.2"/>
<line x1="0" y1="0" x2="0" y2="49.2"/>
<line x1="0" y1="0" x2="480" y2="0"/>
<text x="6" y="33" textLength="192">maxérték := sin(a)</text>
</g>
<g class="for" transform="translate(12,110.4)">
<line x1="480" y1="0" x2="480" y2="205.2"/>
<line x1="0" y1="0" x2="0" y2="205.2"/>
<line x1="0" y1="0" x2="480" y2="0"/>
<line x1="0" y1="205.2" x2="480" y2="205.2"/>
<text x="12" y="33" textLength="99">hol = a..b</text>
<g class="block" transform="translate(37.2,49.2)">
<g class="if" transform="translate(0,0)">
<line x1="0" y1="0" x2="0" y2="105.6"/>
<line x1="0" y1="0" x2="441.6" y2="0"/>
<line x1="0" y1="0" x2="333.21" y2="55.2"/>
<line x1="333.21" y1="55.2" x2="441.6" y2="0"/>
<text x="117.75" y="27" textLength="205.5" class="whiteShadow">sin(hol) &gt; maxérték</text>
<text x="117.75" y="27" textLength="205.5">sin(hol) &gt; maxérték</text>
<g class="then" transform="translate(1.2,55.2)">
<text x="4.5" y="-6" textLength="31.5" class="blocktitle">true</text>
<g class="sequence" transform="translate(0,0)">
<line x1="-1.5" y1="0" x2="333.21" y2="0"/>
<line x1="0" y1="50.4" x2="331.71" y2="50.4"/>
<text x="6" y="33" textLength="211.5">maxérték := sin(hol)</text>
</g>
</g>
<g class="else" transform="translate(332.91,55.2)">
<line x1="0" y1="0" x2="0" y2="50.4"/>
<text x="64.95" y="-6" textLength="37.5" class="blocktitle">false</text>
<g class="sequence" transform="translate(1.2,0)">
<line x1="-1.5" y1="0" x2="108.98" y2="0"/>
<line x1="0" y1="50.4" x2="107.48" y2="50.4"/>
</g>
</g>
</g>
<g class="sequence" transform="translate(0,105.6)">
<line x1="0" y1="0" x2="0" y2="49.2"/>
<line x1="0" y1="0" x2="441.6" y2="0"/>
<text x="6" y="33" textLength="139.5">hol := hol + 1</text>
</g>
</g>
</g>
</g>
</svg>